<?xml version="1.0" encoding="UTF-8" standalone="no"?>
<!DOCTYPE svg PUBLIC "-//W3C//DTD SVG 1.1//EN"
 "http://www.w3.org/Graphics/SVG/1.1/DTD/svg11.dtd">
<!-- Generated by graphviz version 2.40.1 (20161225.0304)
 -->
<!-- Title: dependencies Pages: 1 -->
<svg width="922pt" height="284pt"
 viewBox="0.00 0.00 922.00 284.00" xmlns="http://www.w3.org/2000/svg" xmlns:xlink="http://www.w3.org/1999/xlink">
<g id="graph0" class="graph" transform="scale(1 1) rotate(0) translate(4 280)">
<title>dependencies</title>
<polygon fill="#ffffff" stroke="transparent" points="-4,4 -4,-280 918,-280 918,4 -4,4"/>
<text text-anchor="start" x="436.0091" y="-42.4" font-family="sans-serif" font-weight="bold" font-size="14.00" fill="#000000">Legend</text>
<polygon fill="#ffffb3" stroke="transparent" points="223,-10 223,-30 243,-30 243,-10 223,-10"/>
<text text-anchor="start" x="246.629" y="-15.4" font-family="sans-serif" font-size="14.00" fill="#000000"> &#160;Declarations</text>
<polygon fill="#8dd3c7" stroke="transparent" points="336,-10 336,-30 356,-30 356,-10 336,-10"/>
<text text-anchor="start" x="359.7251" y="-15.4" font-family="sans-serif" font-size="14.00" fill="#000000"> &#160;Module</text>
<polygon fill="#80b1d3" stroke="transparent" points="422,-10 422,-30 442,-30 442,-10 422,-10"/>
<text text-anchor="start" x="445.7812" y="-15.4" font-family="sans-serif" font-size="14.00" fill="#000000"> &#160;Bootstrap</text>
<polygon fill="#fdb462" stroke="transparent" points="519,-10 519,-30 539,-30 539,-10 519,-10"/>
<text text-anchor="start" x="542.6732" y="-15.4" font-family="sans-serif" font-size="14.00" fill="#000000"> &#160;Providers</text>
<polygon fill="#fb8072" stroke="transparent" points="615,-10 615,-30 635,-30 635,-10 615,-10"/>
<text text-anchor="start" x="638.7258" y="-15.4" font-family="sans-serif" font-size="14.00" fill="#000000"> &#160;Exports</text>
<g id="clust1" class="cluster">
<title>cluster_DemoModule</title>
<polygon fill="none" stroke="#000000" stroke-dasharray="1,5" points="8,-70 8,-268 906,-268 906,-70 8,-70"/>
</g>
<g id="clust2" class="cluster">
<title>cluster_DemoModule_declarations</title>
<polygon fill="none" stroke="#000000" points="622,-78 622,-130 898,-130 898,-78 622,-78"/>
</g>
<g id="clust5" class="cluster">
<title>cluster_DemoModule_imports</title>
<polygon fill="none" stroke="#000000" points="16,-78 16,-130 614,-130 614,-78 16,-78"/>
</g>
<g id="clust6" class="cluster">
<title>cluster_DemoModule_exports</title>
<polygon fill="none" stroke="#000000" points="409,-208 409,-260 545,-260 545,-208 409,-208"/>
</g>
<!-- DemoComponent -->
<g id="node1" class="node">
<title>DemoComponent</title>
<polygon fill="#ffffb3" stroke="#000000" points="889.5451,-122 774.4549,-122 774.4549,-86 889.5451,-86 889.5451,-122"/>
<text text-anchor="middle" x="832" y="-99.8" font-family="Times,serif" font-size="14.00" fill="#000000">DemoComponent</text>
</g>
<!-- DemoModule -->
<g id="node3" class="node">
<title>DemoModule</title>
<polygon fill="#8dd3c7" stroke="#000000" points="523.7619,-187 520.7619,-191 499.7619,-191 496.7619,-187 430.2381,-187 430.2381,-151 523.7619,-151 523.7619,-187"/>
<text text-anchor="middle" x="477" y="-164.8" font-family="Times,serif" font-size="14.00" fill="#000000">DemoModule</text>
</g>
<!-- DemoComponent&#45;&gt;DemoModule -->
<g id="edge1" class="edge">
<title>DemoComponent&#45;&gt;DemoModule</title>
<path fill="none" stroke="#000000" d="M832,-122.2843C832,-143.3211 832,-175 832,-175 832,-175 533.7751,-175 533.7751,-175"/>
<polygon fill="#000000" stroke="#000000" points="533.7751,-171.5001 523.7751,-175 533.7751,-178.5001 533.7751,-171.5001"/>
</g>
<!-- Story00Component -->
<g id="node2" class="node">
<title>Story00Component</title>
<polygon fill="#ffffb3" stroke="#000000" points="755.6666,-122 630.3334,-122 630.3334,-86 755.6666,-86 755.6666,-122"/>
<text text-anchor="middle" x="693" y="-99.8" font-family="Times,serif" font-size="14.00" fill="#000000">Story00Component</text>
</g>
<!-- Story00Component&#45;&gt;DemoModule -->
<g id="edge2" class="edge">
<title>Story00Component&#45;&gt;DemoModule</title>
<path fill="none" stroke="#000000" d="M693,-122.0225C693,-139.3734 693,-163 693,-163 693,-163 533.8688,-163 533.8688,-163"/>
<polygon fill="#000000" stroke="#000000" points="533.8688,-159.5001 523.8688,-163 533.8687,-166.5001 533.8688,-159.5001"/>
</g>
<!-- DemoComponent  -->
<g id="node8" class="node">
<title>DemoComponent </title>
<polygon fill="#fb8072" stroke="#000000" points="536.5442,-252 417.4558,-252 417.4558,-216 536.5442,-216 536.5442,-252"/>
<text text-anchor="middle" x="477" y="-229.8" font-family="Times,serif" font-size="14.00" fill="#000000">DemoComponent </text>
</g>
<!-- DemoModule&#45;&gt;DemoComponent  -->
<g id="edge7" class="edge">
<title>DemoModule&#45;&gt;DemoComponent </title>
<path fill="none" stroke="#000000" stroke-dasharray="5,2" d="M477,-187.1061C477,-187.1061 477,-205.991 477,-205.991"/>
<polygon fill="#000000" stroke="#000000" points="473.5001,-205.9909 477,-215.991 480.5001,-205.991 473.5001,-205.9909"/>
</g>
<!-- CommonModule -->
<g id="node4" class="node">
<title>CommonModule</title>
<polygon fill="#8dd3c7" stroke="#000000" points="605.6681,-122 602.6681,-126 581.6681,-126 578.6681,-122 494.3319,-122 494.3319,-86 605.6681,-86 605.6681,-122"/>
<text text-anchor="middle" x="550" y="-99.8" font-family="Times,serif" font-size="14.00" fill="#000000">CommonModule</text>
</g>
<!-- CommonModule&#45;&gt;DemoModule -->
<g id="edge3" class="edge">
<title>CommonModule&#45;&gt;DemoModule</title>
<path fill="none" stroke="#000000" d="M509.0235,-122.1061C509.0235,-122.1061 509.0235,-140.991 509.0235,-140.991"/>
<polygon fill="#000000" stroke="#000000" points="505.5236,-140.9909 509.0235,-150.991 512.5236,-140.991 505.5236,-140.9909"/>
</g>
<!-- ReactiveFormsModule -->
<g id="node5" class="node">
<title>ReactiveFormsModule</title>
<polygon fill="#8dd3c7" stroke="#000000" points="476.3047,-122 473.3047,-126 452.3047,-126 449.3047,-122 331.6953,-122 331.6953,-86 476.3047,-86 476.3047,-122"/>
<text text-anchor="middle" x="404" y="-99.8" font-family="Times,serif" font-size="14.00" fill="#000000">ReactiveFormsModule</text>
</g>
<!-- ReactiveFormsModule&#45;&gt;DemoModule -->
<g id="edge4" class="edge">
<title>ReactiveFormsModule&#45;&gt;DemoModule</title>
<path fill="none" stroke="#000000" d="M453.1357,-122.1061C453.1357,-122.1061 453.1357,-140.991 453.1357,-140.991"/>
<polygon fill="#000000" stroke="#000000" points="449.6358,-140.9909 453.1357,-150.991 456.6358,-140.991 449.6358,-140.9909"/>
</g>
<!-- CloukitThemeModule -->
<g id="node6" class="node">
<title>CloukitThemeModule</title>
<polygon fill="#8dd3c7" stroke="#000000" points="314.4313,-122 311.4313,-126 290.4313,-126 287.4313,-122 173.5687,-122 173.5687,-86 314.4313,-86 314.4313,-122"/>
<text text-anchor="middle" x="244" y="-99.8" font-family="Times,serif" font-size="14.00" fill="#000000">CloukitThemeModule</text>
</g>
<!-- CloukitThemeModule&#45;&gt;DemoModule -->
<g id="edge5" class="edge">
<title>CloukitThemeModule&#45;&gt;DemoModule</title>
<path fill="none" stroke="#000000" d="M244,-122.0225C244,-139.3734 244,-163 244,-163 244,-163 420.1293,-163 420.1293,-163"/>
<polygon fill="#000000" stroke="#000000" points="420.1293,-166.5001 430.1293,-163 420.1292,-159.5001 420.1293,-166.5001"/>
</g>
<!-- CloukitStoryModule -->
<g id="node7" class="node">
<title>CloukitStoryModule</title>
<polygon fill="#8dd3c7" stroke="#000000" points="155.892,-122 152.892,-126 131.892,-126 128.892,-122 24.108,-122 24.108,-86 155.892,-86 155.892,-122"/>
<text text-anchor="middle" x="90" y="-99.8" font-family="Times,serif" font-size="14.00" fill="#000000">CloukitStoryModule</text>
</g>
<!-- CloukitStoryModule&#45;&gt;DemoModule -->
<g id="edge6" class="edge">
<title>CloukitStoryModule&#45;&gt;DemoModule</title>
<path fill="none" stroke="#000000" d="M90,-122.2843C90,-143.3211 90,-175 90,-175 90,-175 419.9331,-175 419.9331,-175"/>
<polygon fill="#000000" stroke="#000000" points="419.9331,-178.5001 429.9331,-175 419.9331,-171.5001 419.9331,-178.5001"/>
</g>
</g>
</svg>
