<?xml version="1.0" encoding="UTF-8" standalone="no"?>
<!DOCTYPE svg PUBLIC "-//W3C//DTD SVG 1.1//EN"
 "http://www.w3.org/Graphics/SVG/1.1/DTD/svg11.dtd">
<!-- Generated by graphviz version 2.40.1 (20161225.0304)
 -->
<!-- Title: dependencies Pages: 1 -->
<svg width="504pt" height="211pt"
 viewBox="0.00 0.00 504.00 211.00" xmlns="http://www.w3.org/2000/svg" xmlns:xlink="http://www.w3.org/1999/xlink">
<g id="graph0" class="graph" transform="scale(1 1) rotate(0) translate(4 207)">
<title>dependencies</title>
<polygon fill="#ffffff" stroke="transparent" points="-4,4 -4,-207 500,-207 500,4 -4,4"/>
<text text-anchor="start" x="227.0091" y="-42.4" font-family="sans-serif" font-weight="bold" font-size="14.00" fill="#000000">Legend</text>
<polygon fill="#ffffb3" stroke="transparent" points="14,-10 14,-30 34,-30 34,-10 14,-10"/>
<text text-anchor="start" x="37.629" y="-15.4" font-family="sans-serif" font-size="14.00" fill="#000000"> &#160;Declarations</text>
<polygon fill="#8dd3c7" stroke="transparent" points="127,-10 127,-30 147,-30 147,-10 127,-10"/>
<text text-anchor="start" x="150.7251" y="-15.4" font-family="sans-serif" font-size="14.00" fill="#000000"> &#160;Module</text>
<polygon fill="#80b1d3" stroke="transparent" points="213,-10 213,-30 233,-30 233,-10 213,-10"/>
<text text-anchor="start" x="236.7812" y="-15.4" font-family="sans-serif" font-size="14.00" fill="#000000"> &#160;Bootstrap</text>
<polygon fill="#fdb462" stroke="transparent" points="310,-10 310,-30 330,-30 330,-10 310,-10"/>
<text text-anchor="start" x="333.6732" y="-15.4" font-family="sans-serif" font-size="14.00" fill="#000000"> &#160;Providers</text>
<polygon fill="#fb8072" stroke="transparent" points="406,-10 406,-30 426,-30 426,-10 406,-10"/>
<text text-anchor="start" x="429.7258" y="-15.4" font-family="sans-serif" font-size="14.00" fill="#000000"> &#160;Exports</text>
<g id="clust1" class="cluster">
<title>cluster_CloukitThemeModule</title>
<polygon fill="none" stroke="#000000" stroke-dasharray="1,5" points="114,-70 114,-195 382,-195 382,-70 114,-70"/>
</g>
<g id="clust3" class="cluster">
<title>cluster_CloukitThemeModule_imports</title>
<polygon fill="none" stroke="#000000" points="122,-78 122,-130 374,-130 374,-78 122,-78"/>
</g>
<!-- CommonModule -->
<g id="node1" class="node">
<title>CommonModule</title>
<polygon fill="#8dd3c7" stroke="#000000" points="365.6681,-122 362.6681,-126 341.6681,-126 338.6681,-122 254.3319,-122 254.3319,-86 365.6681,-86 365.6681,-122"/>
<text text-anchor="middle" x="310" y="-99.8" font-family="Times,serif" font-size="14.00" fill="#000000">CommonModule</text>
</g>
<!-- CloukitThemeModule -->
<g id="node3" class="node">
<title>CloukitThemeModule</title>
<polygon fill="#8dd3c7" stroke="#000000" points="318.4313,-187 315.4313,-191 294.4313,-191 291.4313,-187 177.5687,-187 177.5687,-151 318.4313,-151 318.4313,-187"/>
<text text-anchor="middle" x="248" y="-164.8" font-family="Times,serif" font-size="14.00" fill="#000000">CloukitThemeModule</text>
</g>
<!-- CommonModule&#45;&gt;CloukitThemeModule -->
<g id="edge1" class="edge">
<title>CommonModule&#45;&gt;CloukitThemeModule</title>
<path fill="none" stroke="#000000" d="M286.1908,-122.1061C286.1908,-122.1061 286.1908,-140.991 286.1908,-140.991"/>
<polygon fill="#000000" stroke="#000000" points="282.6908,-140.9909 286.1908,-150.991 289.6908,-140.991 282.6908,-140.9909"/>
</g>
<!-- BrowserModule -->
<g id="node2" class="node">
<title>BrowserModule</title>
<polygon fill="#8dd3c7" stroke="#000000" points="236.4734,-122 233.4734,-126 212.4734,-126 209.4734,-122 129.5266,-122 129.5266,-86 236.4734,-86 236.4734,-122"/>
<text text-anchor="middle" x="183" y="-99.8" font-family="Times,serif" font-size="14.00" fill="#000000">BrowserModule</text>
</g>
<!-- BrowserModule&#45;&gt;CloukitThemeModule -->
<g id="edge2" class="edge">
<title>BrowserModule&#45;&gt;CloukitThemeModule</title>
<path fill="none" stroke="#000000" d="M207.1357,-122.1061C207.1357,-122.1061 207.1357,-140.991 207.1357,-140.991"/>
<polygon fill="#000000" stroke="#000000" points="203.6358,-140.9909 207.1357,-150.991 210.6358,-140.991 203.6358,-140.9909"/>
</g>
</g>
</svg>
