<?xml version="1.0" encoding="UTF-8" standalone="no"?>
<!DOCTYPE svg PUBLIC "-//W3C//DTD SVG 1.1//EN"
 "http://www.w3.org/Graphics/SVG/1.1/DTD/svg11.dtd">
<!-- Generated by graphviz version 2.40.1 (20161225.0304)
 -->
<!-- Title: dependencies Pages: 1 -->
<svg width="504pt" height="349pt"
 viewBox="0.00 0.00 504.00 349.00" xmlns="http://www.w3.org/2000/svg" xmlns:xlink="http://www.w3.org/1999/xlink">
<g id="graph0" class="graph" transform="scale(1 1) rotate(0) translate(4 345)">
<title>dependencies</title>
<polygon fill="#ffffff" stroke="transparent" points="-4,4 -4,-345 500,-345 500,4 -4,4"/>
<text text-anchor="start" x="227.0091" y="-42.4" font-family="sans-serif" font-weight="bold" font-size="14.00" fill="#000000">Legend</text>
<polygon fill="#ffffb3" stroke="transparent" points="14,-10 14,-30 34,-30 34,-10 14,-10"/>
<text text-anchor="start" x="37.629" y="-15.4" font-family="sans-serif" font-size="14.00" fill="#000000"> &#160;Declarations</text>
<polygon fill="#8dd3c7" stroke="transparent" points="127,-10 127,-30 147,-30 147,-10 127,-10"/>
<text text-anchor="start" x="150.7251" y="-15.4" font-family="sans-serif" font-size="14.00" fill="#000000"> &#160;Module</text>
<polygon fill="#80b1d3" stroke="transparent" points="213,-10 213,-30 233,-30 233,-10 213,-10"/>
<text text-anchor="start" x="236.7812" y="-15.4" font-family="sans-serif" font-size="14.00" fill="#000000"> &#160;Bootstrap</text>
<polygon fill="#fdb462" stroke="transparent" points="310,-10 310,-30 330,-30 330,-10 310,-10"/>
<text text-anchor="start" x="333.6732" y="-15.4" font-family="sans-serif" font-size="14.00" fill="#000000"> &#160;Providers</text>
<polygon fill="#fb8072" stroke="transparent" points="406,-10 406,-30 426,-30 426,-10 406,-10"/>
<text text-anchor="start" x="429.7258" y="-15.4" font-family="sans-serif" font-size="14.00" fill="#000000"> &#160;Exports</text>
<g id="clust1" class="cluster">
<title>cluster_CloukitThemeModule</title>
<polygon fill="none" stroke="#000000" stroke-dasharray="1,5" points="168.8924,-70 168.8924,-195 324.8923,-195 324.8923,-70 168.8924,-70"/>
</g>
<g id="clust3" class="cluster">
<title>cluster_CloukitThemeModule_imports</title>
<polygon fill="none" stroke="#000000" points="185.8924,-78 185.8924,-130 313.8923,-130 313.8923,-78 185.8924,-78"/>
</g>
<g id="clust7" class="cluster">
<title>cluster_DemoModule</title>
<polygon fill="none" stroke="#000000" stroke-dasharray="1,5" points="171.8924,-208 171.8924,-333 323.8923,-333 323.8923,-208 171.8924,-208"/>
</g>
<g id="clust10" class="cluster">
<title>cluster_DemoModule_exports</title>
<polygon fill="none" stroke="#000000" points="179.8924,-273 179.8924,-325 315.8923,-325 315.8923,-273 179.8924,-273"/>
</g>
<!-- CommonModule -->
<g id="node1" class="node">
<title>CommonModule</title>
<polygon fill="#8dd3c7" stroke="#000000" points="305.5604,-122 302.5604,-126 281.5604,-126 278.5604,-122 194.2243,-122 194.2243,-86 305.5604,-86 305.5604,-122"/>
<text text-anchor="middle" x="249.8924" y="-99.8" font-family="Times,serif" font-size="14.00" fill="#000000">CommonModule</text>
</g>
<!-- CloukitThemeModule -->
<g id="node2" class="node">
<title>CloukitThemeModule</title>
<polygon fill="#8dd3c7" stroke="#000000" points="317.3236,-187 314.3236,-191 293.3236,-191 290.3236,-187 176.4611,-187 176.4611,-151 317.3236,-151 317.3236,-187"/>
<text text-anchor="middle" x="246.8924" y="-164.8" font-family="Times,serif" font-size="14.00" fill="#000000">CloukitThemeModule</text>
</g>
<!-- CommonModule&#45;&gt;CloukitThemeModule -->
<g id="edge1" class="edge">
<title>CommonModule&#45;&gt;CloukitThemeModule</title>
<path fill="none" stroke="#000000" d="M249.8924,-122.1061C249.8924,-122.1061 249.8924,-140.991 249.8924,-140.991"/>
<polygon fill="#000000" stroke="#000000" points="246.3924,-140.9909 249.8924,-150.991 253.3924,-140.991 246.3924,-140.9909"/>
</g>
<!-- DemoModule -->
<g id="node3" class="node">
<title>DemoModule</title>
<polygon fill="#8dd3c7" stroke="#000000" points="294.6543,-252 291.6543,-256 270.6543,-256 267.6543,-252 201.1304,-252 201.1304,-216 294.6543,-216 294.6543,-252"/>
<text text-anchor="middle" x="247.8924" y="-229.8" font-family="Times,serif" font-size="14.00" fill="#000000">DemoModule</text>
</g>
<!-- CommonModule&#45;&gt;DemoModule -->
<g id="edge2" class="edge">
<title>CommonModule&#45;&gt;DemoModule</title>
<path fill="none" stroke="#000000" d="M305.7814,-104C321.8435,-104 335.1077,-104 335.1077,-104 335.1077,-104 335.1077,-234 335.1077,-234 335.1077,-234 304.8188,-234 304.8188,-234"/>
<polygon fill="#000000" stroke="#000000" points="304.8189,-230.5001 294.8188,-234 304.8188,-237.5001 304.8189,-230.5001"/>
</g>
<!-- CloukitThemeModule&#45;&gt;DemoModule -->
<g id="edge3" class="edge">
<title>CloukitThemeModule&#45;&gt;DemoModule</title>
<path fill="none" stroke="#000000" d="M247.8924,-187.1061C247.8924,-187.1061 247.8924,-205.991 247.8924,-205.991"/>
<polygon fill="#000000" stroke="#000000" points="244.3924,-205.9909 247.8924,-215.991 251.3924,-205.991 244.3924,-205.9909"/>
</g>
<!-- DemoComponent  -->
<g id="node4" class="node">
<title>DemoComponent </title>
<polygon fill="#fb8072" stroke="#000000" points="307.4366,-317 188.3481,-317 188.3481,-281 307.4366,-281 307.4366,-317"/>
<text text-anchor="middle" x="247.8924" y="-294.8" font-family="Times,serif" font-size="14.00" fill="#000000">DemoComponent </text>
</g>
<!-- DemoModule&#45;&gt;DemoComponent  -->
<g id="edge4" class="edge">
<title>DemoModule&#45;&gt;DemoComponent </title>
<path fill="none" stroke="#000000" stroke-dasharray="5,2" d="M247.8924,-252.1061C247.8924,-252.1061 247.8924,-270.991 247.8924,-270.991"/>
<polygon fill="#000000" stroke="#000000" points="244.3924,-270.9909 247.8924,-280.991 251.3924,-270.991 244.3924,-270.9909"/>
</g>
</g>
</svg>
