<?xml version="1.0" encoding="UTF-8" standalone="no"?>
<!DOCTYPE svg PUBLIC "-//W3C//DTD SVG 1.1//EN"
 "http://www.w3.org/Graphics/SVG/1.1/DTD/svg11.dtd">
<!-- Generated by graphviz version 2.40.1 (20161225.0304)
 -->
<!-- Title: dependencies Pages: 1 -->
<svg width="504pt" height="211pt"
 viewBox="0.00 0.00 504.00 211.00" xmlns="http://www.w3.org/2000/svg" xmlns:xlink="http://www.w3.org/1999/xlink">
<g id="graph0" class="graph" transform="scale(1 1) rotate(0) translate(4 207)">
<title>dependencies</title>
<polygon fill="#ffffff" stroke="transparent" points="-4,4 -4,-207 500,-207 500,4 -4,4"/>
<text text-anchor="start" x="227.0091" y="-42.4" font-family="sans-serif" font-weight="bold" font-size="14.00" fill="#000000">Legend</text>
<polygon fill="#ffffb3" stroke="transparent" points="14,-10 14,-30 34,-30 34,-10 14,-10"/>
<text text-anchor="start" x="37.629" y="-15.4" font-family="sans-serif" font-size="14.00" fill="#000000"> &#160;Declarations</text>
<polygon fill="#8dd3c7" stroke="transparent" points="127,-10 127,-30 147,-30 147,-10 127,-10"/>
<text text-anchor="start" x="150.7251" y="-15.4" font-family="sans-serif" font-size="14.00" fill="#000000"> &#160;Module</text>
<polygon fill="#80b1d3" stroke="transparent" points="213,-10 213,-30 233,-30 233,-10 213,-10"/>
<text text-anchor="start" x="236.7812" y="-15.4" font-family="sans-serif" font-size="14.00" fill="#000000"> &#160;Bootstrap</text>
<polygon fill="#fdb462" stroke="transparent" points="310,-10 310,-30 330,-30 330,-10 310,-10"/>
<text text-anchor="start" x="333.6732" y="-15.4" font-family="sans-serif" font-size="14.00" fill="#000000"> &#160;Providers</text>
<polygon fill="#fb8072" stroke="transparent" points="406,-10 406,-30 426,-30 426,-10 406,-10"/>
<text text-anchor="start" x="429.7258" y="-15.4" font-family="sans-serif" font-size="14.00" fill="#000000"> &#160;Exports</text>
<g id="clust1" class="cluster">
<title>cluster_CloukitThemeModule</title>
<polygon fill="none" stroke="#000000" stroke-dasharray="1,5" points="68,-70 68,-195 428,-195 428,-70 68,-70"/>
</g>
<g id="clust3" class="cluster">
<title>cluster_CloukitThemeModule_imports</title>
<polygon fill="none" stroke="#000000" points="292,-78 292,-130 420,-130 420,-78 292,-78"/>
</g>
<g id="clust6" class="cluster">
<title>cluster_CloukitThemeModule_providers</title>
<polygon fill="none" stroke="#000000" points="76,-78 76,-130 284,-130 284,-78 76,-78"/>
</g>
<!-- CommonModule -->
<g id="node1" class="node">
<title>CommonModule</title>
<polygon fill="#8dd3c7" stroke="#000000" points="411.6681,-122 408.6681,-126 387.6681,-126 384.6681,-122 300.3319,-122 300.3319,-86 411.6681,-86 411.6681,-122"/>
<text text-anchor="middle" x="356" y="-99.8" font-family="Times,serif" font-size="14.00" fill="#000000">CommonModule</text>
</g>
<!-- CloukitThemeModule -->
<g id="node2" class="node">
<title>CloukitThemeModule</title>
<polygon fill="#8dd3c7" stroke="#000000" points="335.4313,-187 332.4313,-191 311.4313,-191 308.4313,-187 194.5687,-187 194.5687,-151 335.4313,-151 335.4313,-187"/>
<text text-anchor="middle" x="265" y="-164.8" font-family="Times,serif" font-size="14.00" fill="#000000">CloukitThemeModule</text>
</g>
<!-- CommonModule&#45;&gt;CloukitThemeModule -->
<g id="edge1" class="edge">
<title>CommonModule&#45;&gt;CloukitThemeModule</title>
<path fill="none" stroke="#000000" d="M317.6908,-122.1061C317.6908,-122.1061 317.6908,-140.991 317.6908,-140.991"/>
<polygon fill="#000000" stroke="#000000" points="314.1908,-140.9909 317.6908,-150.991 321.1908,-140.991 314.1908,-140.9909"/>
</g>
<!-- CloukitThemeService -->
<g id="node3" class="node">
<title>CloukitThemeService</title>
<ellipse fill="#fdb462" stroke="#000000" cx="180" cy="-104" rx="95.5645" ry="18"/>
<text text-anchor="middle" x="180" y="-99.8" font-family="Times,serif" font-size="14.00" fill="#000000">CloukitThemeService</text>
</g>
<!-- CloukitThemeService&#45;&gt;CloukitThemeModule -->
<g id="edge2" class="edge">
<title>CloukitThemeService&#45;&gt;CloukitThemeModule</title>
<path fill="none" stroke="#000000" d="M235.2833,-118.7495C235.2833,-118.7495 235.2833,-140.5882 235.2833,-140.5882"/>
<polygon fill="#000000" stroke="#000000" points="231.7834,-140.5881 235.2833,-150.5882 238.7834,-140.5882 231.7834,-140.5881"/>
</g>
</g>
</svg>
