<?xml version="1.0" encoding="UTF-8" standalone="no"?>
<!DOCTYPE svg PUBLIC "-//W3C//DTD SVG 1.1//EN"
 "http://www.w3.org/Graphics/SVG/1.1/DTD/svg11.dtd">
<!-- Generated by graphviz version 2.40.1 (20161225.0304)
 -->
<!-- Title: dependencies Pages: 1 -->
<svg width="538pt" height="352pt"
 viewBox="0.00 0.00 538.00 352.00" xmlns="http://www.w3.org/2000/svg" xmlns:xlink="http://www.w3.org/1999/xlink">
<g id="graph0" class="graph" transform="scale(1 1) rotate(0) translate(4 348)">
<title>dependencies</title>
<polygon fill="#ffffff" stroke="transparent" points="-4,4 -4,-348 534,-348 534,4 -4,4"/>
<text text-anchor="start" x="244.0091" y="-42.4" font-family="sans-serif" font-weight="bold" font-size="14.00" fill="#000000">Legend</text>
<polygon fill="#ffffb3" stroke="transparent" points="31,-10 31,-30 51,-30 51,-10 31,-10"/>
<text text-anchor="start" x="54.629" y="-15.4" font-family="sans-serif" font-size="14.00" fill="#000000"> &#160;Declarations</text>
<polygon fill="#8dd3c7" stroke="transparent" points="144,-10 144,-30 164,-30 164,-10 144,-10"/>
<text text-anchor="start" x="167.7251" y="-15.4" font-family="sans-serif" font-size="14.00" fill="#000000"> &#160;Module</text>
<polygon fill="#80b1d3" stroke="transparent" points="230,-10 230,-30 250,-30 250,-10 230,-10"/>
<text text-anchor="start" x="253.7812" y="-15.4" font-family="sans-serif" font-size="14.00" fill="#000000"> &#160;Bootstrap</text>
<polygon fill="#fdb462" stroke="transparent" points="327,-10 327,-30 347,-30 347,-10 327,-10"/>
<text text-anchor="start" x="350.6732" y="-15.4" font-family="sans-serif" font-size="14.00" fill="#000000"> &#160;Providers</text>
<polygon fill="#fb8072" stroke="transparent" points="423,-10 423,-30 443,-30 443,-10 423,-10"/>
<text text-anchor="start" x="446.7258" y="-15.4" font-family="sans-serif" font-size="14.00" fill="#000000"> &#160;Exports</text>
<g id="clust1" class="cluster">
<title>cluster_CloukitThemeModule</title>
<polygon fill="none" stroke="#000000" stroke-dasharray="1,5" points="8,-70 8,-198 164,-198 164,-70 8,-70"/>
</g>
<g id="clust3" class="cluster">
<title>cluster_CloukitThemeModule_imports</title>
<polygon fill="none" stroke="#000000" points="25,-78 25,-130 153,-130 153,-78 25,-78"/>
</g>
<g id="clust7" class="cluster">
<title>cluster_DemoModule</title>
<polygon fill="none" stroke="#000000" stroke-dasharray="1,5" points="196,-138 196,-336 522,-336 522,-138 196,-138"/>
</g>
<g id="clust9" class="cluster">
<title>cluster_DemoModule_imports</title>
<polygon fill="none" stroke="#000000" points="204,-146 204,-198 514,-198 514,-146 204,-146"/>
</g>
<g id="clust10" class="cluster">
<title>cluster_DemoModule_exports</title>
<polygon fill="none" stroke="#000000" points="207,-276 207,-328 343,-328 343,-276 207,-276"/>
</g>
<!-- CommonModule -->
<g id="node1" class="node">
<title>CommonModule</title>
<polygon fill="#8dd3c7" stroke="#000000" points="144.6681,-122 141.6681,-126 120.6681,-126 117.6681,-122 33.3319,-122 33.3319,-86 144.6681,-86 144.6681,-122"/>
<text text-anchor="middle" x="89" y="-99.8" font-family="Times,serif" font-size="14.00" fill="#000000">CommonModule</text>
</g>
<!-- CloukitThemeModule -->
<g id="node2" class="node">
<title>CloukitThemeModule</title>
<polygon fill="#8dd3c7" stroke="#000000" points="156.4313,-190 153.4313,-194 132.4313,-194 129.4313,-190 15.5687,-190 15.5687,-154 156.4313,-154 156.4313,-190"/>
<text text-anchor="middle" x="86" y="-167.8" font-family="Times,serif" font-size="14.00" fill="#000000">CloukitThemeModule</text>
</g>
<!-- CommonModule&#45;&gt;CloukitThemeModule -->
<g id="edge1" class="edge">
<title>CommonModule&#45;&gt;CloukitThemeModule</title>
<path fill="none" stroke="#000000" d="M89,-122.2228C89,-122.2228 89,-143.7269 89,-143.7269"/>
<polygon fill="#000000" stroke="#000000" points="85.5001,-143.7269 89,-153.7269 92.5001,-143.727 85.5001,-143.7269"/>
</g>
<!-- DemoModule -->
<g id="node5" class="node">
<title>DemoModule</title>
<polygon fill="#8dd3c7" stroke="#000000" points="321.7619,-255 318.7619,-259 297.7619,-259 294.7619,-255 228.2381,-255 228.2381,-219 321.7619,-219 321.7619,-255"/>
<text text-anchor="middle" x="275" y="-232.8" font-family="Times,serif" font-size="14.00" fill="#000000">DemoModule</text>
</g>
<!-- CommonModule&#45;&gt;DemoModule -->
<g id="edge2" class="edge">
<title>CommonModule&#45;&gt;DemoModule</title>
<path fill="none" stroke="#000000" d="M144.8905,-104C165.5987,-104 184.1347,-104 184.1347,-104 184.1347,-104 184.1347,-231 184.1347,-231 184.1347,-231 218.2365,-231 218.2365,-231"/>
<polygon fill="#000000" stroke="#000000" points="218.2365,-234.5001 228.2365,-231 218.2364,-227.5001 218.2365,-234.5001"/>
</g>
<!-- CloukitThemeModule&#45;&gt;DemoModule -->
<g id="edge4" class="edge">
<title>CloukitThemeModule&#45;&gt;DemoModule</title>
<path fill="none" stroke="#000000" d="M86,-190.2843C86,-211.3211 86,-243 86,-243 86,-243 217.7949,-243 217.7949,-243"/>
<polygon fill="#000000" stroke="#000000" points="217.7949,-246.5001 227.7949,-243 217.7948,-239.5001 217.7949,-246.5001"/>
</g>
<!-- ReactiveFormsModule -->
<g id="node3" class="node">
<title>ReactiveFormsModule</title>
<polygon fill="#8dd3c7" stroke="#000000" points="506.3047,-190 503.3047,-194 482.3047,-194 479.3047,-190 361.6953,-190 361.6953,-154 506.3047,-154 506.3047,-190"/>
<text text-anchor="middle" x="434" y="-167.8" font-family="Times,serif" font-size="14.00" fill="#000000">ReactiveFormsModule</text>
</g>
<!-- ReactiveFormsModule&#45;&gt;DemoModule -->
<g id="edge3" class="edge">
<title>ReactiveFormsModule&#45;&gt;DemoModule</title>
<path fill="none" stroke="#000000" d="M434,-190.1061C434,-209.3391 434,-237 434,-237 434,-237 331.8453,-237 331.8453,-237"/>
<polygon fill="#000000" stroke="#000000" points="331.8453,-233.5001 321.8453,-237 331.8452,-240.5001 331.8453,-233.5001"/>
</g>
<!-- CloukitStoryModule -->
<g id="node4" class="node">
<title>CloukitStoryModule</title>
<polygon fill="#8dd3c7" stroke="#000000" points="343.892,-190 340.892,-194 319.892,-194 316.892,-190 212.108,-190 212.108,-154 343.892,-154 343.892,-190"/>
<text text-anchor="middle" x="278" y="-167.8" font-family="Times,serif" font-size="14.00" fill="#000000">CloukitStoryModule</text>
</g>
<!-- CloukitStoryModule&#45;&gt;DemoModule -->
<g id="edge5" class="edge">
<title>CloukitStoryModule&#45;&gt;DemoModule</title>
<path fill="none" stroke="#000000" d="M275,-190.1061C275,-190.1061 275,-208.991 275,-208.991"/>
<polygon fill="#000000" stroke="#000000" points="271.5001,-208.9909 275,-218.991 278.5001,-208.991 271.5001,-208.9909"/>
</g>
<!-- DemoComponent  -->
<g id="node6" class="node">
<title>DemoComponent </title>
<polygon fill="#fb8072" stroke="#000000" points="334.5442,-320 215.4558,-320 215.4558,-284 334.5442,-284 334.5442,-320"/>
<text text-anchor="middle" x="275" y="-297.8" font-family="Times,serif" font-size="14.00" fill="#000000">DemoComponent </text>
</g>
<!-- DemoModule&#45;&gt;DemoComponent  -->
<g id="edge6" class="edge">
<title>DemoModule&#45;&gt;DemoComponent </title>
<path fill="none" stroke="#000000" stroke-dasharray="5,2" d="M275,-255.1061C275,-255.1061 275,-273.991 275,-273.991"/>
<polygon fill="#000000" stroke="#000000" points="271.5001,-273.9909 275,-283.991 278.5001,-273.991 271.5001,-273.9909"/>
</g>
</g>
</svg>
