<?xml version="1.0" encoding="UTF-8" standalone="no"?>
<!DOCTYPE svg PUBLIC "-//W3C//DTD SVG 1.1//EN"
 "http://www.w3.org/Graphics/SVG/1.1/DTD/svg11.dtd">
<!-- Generated by graphviz version 2.40.1 (20161225.0304)
 -->
<!-- Title: dependencies Pages: 1 -->
<svg width="508pt" height="211pt"
 viewBox="0.00 0.00 508.00 211.00" xmlns="http://www.w3.org/2000/svg" xmlns:xlink="http://www.w3.org/1999/xlink">
<g id="graph0" class="graph" transform="scale(1 1) rotate(0) translate(4 207)">
<title>dependencies</title>
<polygon fill="#ffffff" stroke="transparent" points="-4,4 -4,-207 504,-207 504,4 -4,4"/>
<text text-anchor="start" x="229.0091" y="-42.4" font-family="sans-serif" font-weight="bold" font-size="14.00" fill="#000000">Legend</text>
<polygon fill="#ffffb3" stroke="transparent" points="16,-10 16,-30 36,-30 36,-10 16,-10"/>
<text text-anchor="start" x="39.629" y="-15.4" font-family="sans-serif" font-size="14.00" fill="#000000"> &#160;Declarations</text>
<polygon fill="#8dd3c7" stroke="transparent" points="129,-10 129,-30 149,-30 149,-10 129,-10"/>
<text text-anchor="start" x="152.7251" y="-15.4" font-family="sans-serif" font-size="14.00" fill="#000000"> &#160;Module</text>
<polygon fill="#80b1d3" stroke="transparent" points="215,-10 215,-30 235,-30 235,-10 215,-10"/>
<text text-anchor="start" x="238.7812" y="-15.4" font-family="sans-serif" font-size="14.00" fill="#000000"> &#160;Bootstrap</text>
<polygon fill="#fdb462" stroke="transparent" points="312,-10 312,-30 332,-30 332,-10 312,-10"/>
<text text-anchor="start" x="335.6732" y="-15.4" font-family="sans-serif" font-size="14.00" fill="#000000"> &#160;Providers</text>
<polygon fill="#fb8072" stroke="transparent" points="408,-10 408,-30 428,-30 428,-10 408,-10"/>
<text text-anchor="start" x="431.7258" y="-15.4" font-family="sans-serif" font-size="14.00" fill="#000000"> &#160;Exports</text>
<g id="clust1" class="cluster">
<title>cluster_CloukitThemeModule</title>
<polygon fill="none" stroke="#000000" stroke-dasharray="1,5" points="8,-70 8,-195 492,-195 492,-70 8,-70"/>
</g>
<g id="clust3" class="cluster">
<title>cluster_CloukitThemeModule_imports</title>
<polygon fill="none" stroke="#000000" points="232,-78 232,-130 484,-130 484,-78 232,-78"/>
</g>
<g id="clust6" class="cluster">
<title>cluster_CloukitThemeModule_providers</title>
<polygon fill="none" stroke="#000000" points="16,-78 16,-130 224,-130 224,-78 16,-78"/>
</g>
<!-- CommonModule -->
<g id="node1" class="node">
<title>CommonModule</title>
<polygon fill="#8dd3c7" stroke="#000000" points="475.6681,-122 472.6681,-126 451.6681,-126 448.6681,-122 364.3319,-122 364.3319,-86 475.6681,-86 475.6681,-122"/>
<text text-anchor="middle" x="420" y="-99.8" font-family="Times,serif" font-size="14.00" fill="#000000">CommonModule</text>
</g>
<!-- CloukitThemeModule -->
<g id="node3" class="node">
<title>CloukitThemeModule</title>
<polygon fill="#8dd3c7" stroke="#000000" points="363.4313,-187 360.4313,-191 339.4313,-191 336.4313,-187 222.5687,-187 222.5687,-151 363.4313,-151 363.4313,-187"/>
<text text-anchor="middle" x="293" y="-164.8" font-family="Times,serif" font-size="14.00" fill="#000000">CloukitThemeModule</text>
</g>
<!-- CommonModule&#45;&gt;CloukitThemeModule -->
<g id="edge1" class="edge">
<title>CommonModule&#45;&gt;CloukitThemeModule</title>
<path fill="none" stroke="#000000" d="M364.1853,-104C358.55,-104 354.851,-104 354.851,-104 354.851,-104 354.851,-140.8939 354.851,-140.8939"/>
<polygon fill="#000000" stroke="#000000" points="351.3511,-140.8938 354.851,-150.8939 358.3511,-140.8939 351.3511,-140.8938"/>
</g>
<!-- BrowserModule -->
<g id="node2" class="node">
<title>BrowserModule</title>
<polygon fill="#8dd3c7" stroke="#000000" points="346.4734,-122 343.4734,-126 322.4734,-126 319.4734,-122 239.5266,-122 239.5266,-86 346.4734,-86 346.4734,-122"/>
<text text-anchor="middle" x="293" y="-99.8" font-family="Times,serif" font-size="14.00" fill="#000000">BrowserModule</text>
</g>
<!-- BrowserModule&#45;&gt;CloukitThemeModule -->
<g id="edge2" class="edge">
<title>BrowserModule&#45;&gt;CloukitThemeModule</title>
<path fill="none" stroke="#000000" d="M293,-122.1061C293,-122.1061 293,-140.991 293,-140.991"/>
<polygon fill="#000000" stroke="#000000" points="289.5001,-140.9909 293,-150.991 296.5001,-140.991 289.5001,-140.9909"/>
</g>
<!-- CloukitThemeService -->
<g id="node4" class="node">
<title>CloukitThemeService</title>
<ellipse fill="#fdb462" stroke="#000000" cx="120" cy="-104" rx="95.5645" ry="18"/>
<text text-anchor="middle" x="120" y="-99.8" font-family="Times,serif" font-size="14.00" fill="#000000">CloukitThemeService</text>
</g>
<!-- CloukitThemeService&#45;&gt;CloukitThemeModule -->
<g id="edge3" class="edge">
<title>CloukitThemeService&#45;&gt;CloukitThemeModule</title>
<path fill="none" stroke="#000000" d="M216.159,-104C225.2452,-104 231.149,-104 231.149,-104 231.149,-104 231.149,-140.8939 231.149,-140.8939"/>
<polygon fill="#000000" stroke="#000000" points="227.6491,-140.8938 231.149,-150.8939 234.6491,-140.8939 227.6491,-140.8938"/>
</g>
</g>
</svg>
